<svg width="200" height="174" viewBox="0 0 200 174" fill="none" xmlns="http://www.w3.org/2000/svg">
<path d="M198.5 87C198.5 134.031 154.603 172.5 100 172.5C45.397 172.5 1.5 134.031 1.5 87C1.5 39.969 45.397 1.5 100 1.5C154.603 1.5 198.5 39.969 198.5 87Z" stroke="#815AD4" stroke-width="3"/>
<path d="M63.1787 44.8232H60.1729V50H58.4766V37.2031H62.7129C64.1543 37.2031 65.2617 37.5312 66.0352 38.1875C66.8145 38.8438 67.2041 39.7988 67.2041 41.0527C67.2041 41.8496 66.9873 42.5439 66.5537 43.1357C66.126 43.7275 65.5283 44.1699 64.7607 44.4629L67.7666 49.8945V50H65.9561L63.1787 44.8232ZM60.1729 43.4434H62.7656C63.6035 43.4434 64.2686 43.2266 64.7607 42.793C65.2588 42.3594 65.5078 41.7793 65.5078 41.0527C65.5078 40.2617 65.2705 39.6553 64.7959 39.2334C64.3271 38.8115 63.6475 38.5977 62.7568 38.5918H60.1729V43.4434ZM73.2686 50.1758C71.9795 50.1758 70.9307 49.7539 70.1221 48.9102C69.3135 48.0605 68.9092 46.9268 68.9092 45.5088V45.21C68.9092 44.2666 69.0879 43.4258 69.4453 42.6875C69.8086 41.9434 70.3125 41.3633 70.957 40.9473C71.6074 40.5254 72.3105 40.3145 73.0664 40.3145C74.3027 40.3145 75.2637 40.7217 75.9492 41.5361C76.6348 42.3506 76.9775 43.5166 76.9775 45.0342V45.7109H70.5352C70.5586 46.6484 70.8311 47.4072 71.3525 47.9873C71.8799 48.5615 72.5479 48.8486 73.3564 48.8486C73.9307 48.8486 74.417 48.7314 74.8154 48.4971C75.2139 48.2627 75.5625 47.9521 75.8613 47.5654L76.8545 48.3389C76.0576 49.5635 74.8623 50.1758 73.2686 50.1758ZM73.0664 41.6504C72.4102 41.6504 71.8594 41.8906 71.4141 42.3711C70.9688 42.8457 70.6934 43.5137 70.5879 44.375H75.3516V44.252C75.3047 43.4258 75.082 42.7871 74.6836 42.3359C74.2852 41.8789 73.7461 41.6504 73.0664 41.6504ZM84.4043 47.4775C84.4043 47.0381 84.2373 46.6982 83.9033 46.458C83.5752 46.2119 82.998 46.001 82.1719 45.8252C81.3516 45.6494 80.6982 45.4385 80.2119 45.1924C79.7314 44.9463 79.374 44.6533 79.1396 44.3135C78.9111 43.9736 78.7969 43.5693 78.7969 43.1006C78.7969 42.3213 79.125 41.6621 79.7812 41.123C80.4434 40.584 81.2871 40.3145 82.3125 40.3145C83.3906 40.3145 84.2637 40.5928 84.9316 41.1494C85.6055 41.7061 85.9424 42.418 85.9424 43.2852H84.3076C84.3076 42.8398 84.1172 42.4561 83.7363 42.1338C83.3613 41.8115 82.8867 41.6504 82.3125 41.6504C81.7207 41.6504 81.2578 41.7793 80.9238 42.0371C80.5898 42.2949 80.4229 42.6318 80.4229 43.0479C80.4229 43.4404 80.5781 43.7363 80.8887 43.9355C81.1992 44.1348 81.7588 44.3252 82.5674 44.5068C83.3818 44.6885 84.041 44.9053 84.5449 45.1572C85.0488 45.4092 85.4209 45.7139 85.6611 46.0713C85.9072 46.4229 86.0303 46.8535 86.0303 47.3633C86.0303 48.2129 85.6904 48.8955 85.0107 49.4111C84.3311 49.9209 83.4492 50.1758 82.3652 50.1758C81.6035 50.1758 80.9297 50.041 80.3438 49.7715C79.7578 49.502 79.2979 49.127 78.9639 48.6465C78.6357 48.1602 78.4717 47.6357 78.4717 47.0732H80.0977C80.127 47.6182 80.3438 48.0518 80.748 48.374C81.1582 48.6904 81.6973 48.8486 82.3652 48.8486C82.9805 48.8486 83.4727 48.7256 83.8418 48.4795C84.2168 48.2275 84.4043 47.8936 84.4043 47.4775ZM90.3545 38.1875V40.4902H92.1299V41.7471H90.3545V47.6445C90.3545 48.0254 90.4336 48.3125 90.5918 48.5059C90.75 48.6934 91.0195 48.7871 91.4004 48.7871C91.5879 48.7871 91.8457 48.752 92.1738 48.6816V50C91.7461 50.1172 91.3301 50.1758 90.9258 50.1758C90.1992 50.1758 89.6514 49.9561 89.2822 49.5166C88.9131 49.0771 88.7285 48.4531 88.7285 47.6445V41.7471H86.9971V40.4902H88.7285V38.1875H90.3545ZM99.9082 50C99.8145 49.8125 99.7383 49.4785 99.6797 48.998C98.9238 49.7832 98.0215 50.1758 96.9727 50.1758C96.0352 50.1758 95.2646 49.9121 94.6611 49.3848C94.0635 48.8516 93.7646 48.1777 93.7646 47.3633C93.7646 46.373 94.1396 45.6055 94.8896 45.0605C95.6455 44.5098 96.7061 44.2344 98.0713 44.2344H99.6533V43.4873C99.6533 42.9189 99.4834 42.4678 99.1436 42.1338C98.8037 41.7939 98.3027 41.624 97.6406 41.624C97.0605 41.624 96.5742 41.7705 96.1816 42.0635C95.7891 42.3564 95.5928 42.7109 95.5928 43.127H93.958C93.958 42.6523 94.125 42.1953 94.459 41.7559C94.7988 41.3105 95.2559 40.959 95.8301 40.7012C96.4102 40.4434 97.0459 40.3145 97.7373 40.3145C98.833 40.3145 99.6914 40.5898 100.312 41.1406C100.934 41.6855 101.256 42.4385 101.279 43.3994V47.7764C101.279 48.6494 101.391 49.3438 101.613 49.8594V50H99.9082ZM97.21 48.7607C97.7197 48.7607 98.2031 48.6289 98.6602 48.3652C99.1172 48.1016 99.4482 47.7588 99.6533 47.3369V45.3857H98.3789C96.3867 45.3857 95.3906 45.9688 95.3906 47.1348C95.3906 47.6445 95.5605 48.043 95.9004 48.3301C96.2402 48.6172 96.6768 48.7607 97.21 48.7607ZM109.699 49.0596C109.066 49.8037 108.138 50.1758 106.913 50.1758C105.899 50.1758 105.126 49.8828 104.593 49.2969C104.065 48.7051 103.799 47.832 103.793 46.6777V40.4902H105.419V46.6338C105.419 48.0752 106.005 48.7959 107.177 48.7959C108.419 48.7959 109.245 48.333 109.655 47.4072V40.4902H111.281V50H109.734L109.699 49.0596ZM118.356 41.9492C118.11 41.9082 117.844 41.8877 117.557 41.8877C116.49 41.8877 115.767 42.3418 115.386 43.25V50H113.76V40.4902H115.342L115.368 41.5889C115.901 40.7393 116.657 40.3145 117.636 40.3145C117.952 40.3145 118.192 40.3555 118.356 40.4375V41.9492ZM125.379 50C125.285 49.8125 125.209 49.4785 125.15 48.998C124.395 49.7832 123.492 50.1758 122.443 50.1758C121.506 50.1758 120.735 49.9121 120.132 49.3848C119.534 48.8516 119.235 48.1777 119.235 47.3633C119.235 46.373 119.61 45.6055 120.36 45.0605C121.116 44.5098 122.177 44.2344 123.542 44.2344H125.124V43.4873C125.124 42.9189 124.954 42.4678 124.614 42.1338C124.274 41.7939 123.773 41.624 123.111 41.624C122.531 41.624 122.045 41.7705 121.652 42.0635C121.26 42.3564 121.063 42.7109 121.063 43.127H119.429C119.429 42.6523 119.596 42.1953 119.93 41.7559C120.27 41.3105 120.727 40.959 121.301 40.7012C121.881 40.4434 122.517 40.3145 123.208 40.3145C124.304 40.3145 125.162 40.5898 125.783 41.1406C126.404 41.6855 126.727 42.4385 126.75 43.3994V47.7764C126.75 48.6494 126.861 49.3438 127.084 49.8594V50H125.379ZM122.681 48.7607C123.19 48.7607 123.674 48.6289 124.131 48.3652C124.588 48.1016 124.919 47.7588 125.124 47.3369V45.3857H123.85C121.857 45.3857 120.861 45.9688 120.861 47.1348C120.861 47.6445 121.031 48.043 121.371 48.3301C121.711 48.6172 122.147 48.7607 122.681 48.7607ZM130.837 40.4902L130.89 41.6855C131.616 40.7715 132.565 40.3145 133.737 40.3145C135.747 40.3145 136.761 41.4482 136.778 43.7158V50H135.152V43.707C135.146 43.0215 134.988 42.5146 134.678 42.1865C134.373 41.8584 133.896 41.6943 133.245 41.6943C132.718 41.6943 132.255 41.835 131.856 42.1162C131.458 42.3975 131.147 42.7666 130.925 43.2236V50H129.299V40.4902H130.837ZM141.437 38.1875V40.4902H143.212V41.7471H141.437V47.6445C141.437 48.0254 141.516 48.3125 141.674 48.5059C141.832 48.6934 142.102 48.7871 142.482 48.7871C142.67 48.7871 142.928 48.752 143.256 48.6816V50C142.828 50.1172 142.412 50.1758 142.008 50.1758C141.281 50.1758 140.733 49.9561 140.364 49.5166C139.995 49.0771 139.811 48.4531 139.811 47.6445V41.7471H138.079V40.4902H139.811V38.1875H141.437Z" fill="#815AD4"/>
<path d="M48.3438 83.0625L43.3438 72.375L27.4062 75.5312L28 86.9688H32.7188L37.9062 79.4375V98.4375L32.4688 90.0625L28.1875 90.5625L29.0312 106.188L38.2188 110.094L14.375 112.625L21.1562 106.562L22.8125 76.5938L14.2812 69.0625L48.3438 67.8438V83.0625ZM50.2812 112.312L55.1875 108.469L54.125 86.9062L48.3438 83.125L61.7812 80.8438L59.375 105.906L66.0938 110.094L50.2812 112.312ZM62.125 73.2812C62.125 73.9062 62 74.5 61.75 75.0625C61.5 75.6042 61.1562 76.0938 60.7188 76.5312C60.2812 76.9479 59.7812 77.2812 59.2188 77.5312C58.6562 77.7604 58.0625 77.875 57.4375 77.875C56.7708 77.875 56.1458 77.7604 55.5625 77.5312C55 77.2812 54.5104 76.9479 54.0938 76.5312C53.6771 76.0938 53.3438 75.6042 53.0938 75.0625C52.8438 74.5 52.7188 73.9062 52.7188 73.2812C52.7188 72.6354 52.8438 72.0417 53.0938 71.5C53.3438 70.9375 53.6771 70.4479 54.0938 70.0312C54.5104 69.6146 55 69.2917 55.5625 69.0625C56.1458 68.8125 56.7708 68.6875 57.4375 68.6875C58.0625 68.6875 58.6562 68.8125 59.2188 69.0625C59.7812 69.2917 60.2812 69.6146 60.7188 70.0312C61.1562 70.4479 61.5 70.9375 61.75 71.5C62 72.0417 62.125 72.6354 62.125 73.2812ZM95.6562 92.5938C95.6562 93.7604 95.6042 94.9896 95.5 96.2812C95.3958 97.5729 95.2396 98.8646 95.0312 100.156C94.8229 101.448 94.5625 102.708 94.25 103.938C93.9583 105.167 93.6146 106.292 93.2188 107.312L99.375 109.312L83.0938 112.5L88.625 108.344C89.0625 106.74 89.3542 105.198 89.5 103.719C89.6667 102.24 89.75 100.844 89.75 99.5312C89.75 98.7396 89.7188 97.8438 89.6562 96.8438C89.6146 95.8229 89.5 94.7917 89.3125 93.75C89.1458 92.7083 88.8958 91.6875 88.5625 90.6875C88.25 89.6875 87.8333 88.8021 87.3125 88.0312C86.7917 87.2396 86.1458 86.6146 85.375 86.1562C84.625 85.6771 83.7188 85.4375 82.6562 85.4375C81.4271 85.4375 80.1771 85.8438 78.9062 86.6562C77.6354 87.4688 76.4583 88.6667 75.375 90.25V107.531L80.5312 111.219L65.0625 112.312L69.1562 107.781L71.3438 85.0625L64.6875 81.7812L75.375 80.7188V85.4375C75.9792 84.6042 76.6458 83.8229 77.375 83.0938C78.1042 82.3646 78.875 81.7396 79.6875 81.2188C80.5 80.6771 81.3438 80.2604 82.2188 79.9688C83.1146 79.6562 84.0312 79.5 84.9688 79.5C86.7812 79.5 88.3542 79.8333 89.6875 80.5C91.0208 81.1667 92.125 82.0938 93 83.2812C93.8958 84.4479 94.5625 85.8333 95 87.4375C95.4375 89.0208 95.6562 90.7396 95.6562 92.5938ZM126.906 108.094L133.812 110.656L122.5 112.844L122.625 106.75C122.125 107.604 121.552 108.427 120.906 109.219C120.26 109.99 119.531 110.677 118.719 111.281C117.927 111.885 117.042 112.365 116.062 112.719C115.083 113.094 114.021 113.281 112.875 113.281C111.25 113.24 109.708 112.875 108.25 112.188C106.812 111.5 105.542 110.521 104.438 109.25C103.354 107.958 102.49 106.385 101.844 104.531C101.219 102.656 100.906 100.521 100.906 98.125C100.906 95.2083 101.25 92.6562 101.938 90.4688C102.625 88.2812 103.562 86.4583 104.75 85C105.938 83.5417 107.323 82.4479 108.906 81.7188C110.51 80.9896 112.219 80.625 114.031 80.625C115.865 80.625 117.562 81.0208 119.125 81.8125C120.708 82.5833 122 83.625 123 84.9375L123.125 77.5625L115.5 74.6875L130.938 71.9375L126.906 108.094ZM113.844 109.312C113.906 109.312 114.115 109.292 114.469 109.25C114.823 109.208 115.26 109.104 115.781 108.938C116.302 108.75 116.875 108.479 117.5 108.125C118.146 107.771 118.781 107.281 119.406 106.656C120.052 106.01 120.667 105.208 121.25 104.25C121.833 103.292 122.333 102.125 122.75 100.75L122.938 90.5625C122.625 89.8125 122.229 89.0938 121.75 88.4062C121.292 87.7188 120.771 87.1146 120.188 86.5938C119.625 86.0521 118.99 85.625 118.281 85.3125C117.594 84.9792 116.865 84.8125 116.094 84.8125C114.656 84.8125 113.427 85.1667 112.406 85.875C111.406 86.5833 110.573 87.5625 109.906 88.8125C109.26 90.0625 108.781 91.5417 108.469 93.25C108.177 94.9583 108.031 96.8125 108.031 98.8125C108.031 100.292 108.156 101.677 108.406 102.969C108.656 104.24 109.021 105.344 109.5 106.281C109.979 107.219 110.583 107.958 111.312 108.5C112.042 109.042 112.885 109.312 113.844 109.312ZM142.031 100.531C142.302 101.698 142.667 102.844 143.125 103.969C143.583 105.073 144.146 106.062 144.812 106.938C145.479 107.812 146.25 108.521 147.125 109.062C148 109.604 148.99 109.875 150.094 109.875C151.552 109.875 152.823 109.573 153.906 108.969C154.99 108.365 155.875 107.604 156.562 106.688C157.25 105.75 157.729 104.729 158 103.625C158.271 102.5 158.323 101.427 158.156 100.406C158.74 100.635 159.219 100.938 159.594 101.312C159.99 101.688 160.292 102.104 160.5 102.562C160.729 103 160.885 103.458 160.969 103.938C161.052 104.396 161.094 104.844 161.094 105.281C161.094 106.281 160.802 107.25 160.219 108.188C159.635 109.104 158.812 109.927 157.75 110.656C156.708 111.365 155.469 111.938 154.031 112.375C152.594 112.812 151.021 113.031 149.312 113.031C147.021 113.031 144.969 112.583 143.156 111.688C141.365 110.792 139.844 109.583 138.594 108.062C137.344 106.521 136.385 104.719 135.719 102.656C135.052 100.594 134.719 98.3958 134.719 96.0625C134.719 93.6875 135.052 91.5 135.719 89.5C136.385 87.4792 137.365 85.7604 138.656 84.3438C139.969 82.9271 141.573 81.8542 143.469 81.125C145.365 80.3958 147.552 80.1042 150.031 80.25C151.74 80.375 153.312 80.8646 154.75 81.7188C156.188 82.5729 157.438 83.6771 158.5 85.0312C159.583 86.3646 160.448 87.8958 161.094 89.625C161.76 91.3542 162.167 93.1562 162.312 95.0312L142.031 100.531ZM141.438 95.5C141.438 95.7917 141.438 96.0833 141.438 96.375C141.438 96.6458 141.458 96.9271 141.5 97.2188L155.219 92.2188C154.76 90.7188 154.24 89.4375 153.656 88.375C153.094 87.2917 152.5 86.4062 151.875 85.7188C151.25 85.0312 150.615 84.5312 149.969 84.2188C149.344 83.8854 148.74 83.7188 148.156 83.7188C147.281 83.7188 146.51 83.8854 145.844 84.2188C145.177 84.5521 144.594 85.0104 144.094 85.5938C143.615 86.1562 143.198 86.8229 142.844 87.5938C142.51 88.3646 142.24 89.1875 142.031 90.0625C141.823 90.9375 141.667 91.8438 141.562 92.7812C141.479 93.6979 141.438 94.6042 141.438 95.5ZM187.188 90.6875C187 89.9167 186.729 89.2604 186.375 88.7188C186.042 88.1771 185.656 87.7292 185.219 87.375C184.802 87 184.354 86.7188 183.875 86.5312C183.396 86.3229 182.917 86.1667 182.438 86.0625C181.312 85.8333 180.115 85.8438 178.844 86.0938C178.406 86.2396 177.938 86.4688 177.438 86.7812C177 87.0729 176.5 87.4688 175.938 87.9688C175.375 88.4479 174.771 89.0938 174.125 89.9062L174.688 108.031L180.312 110.844L163.75 112.312L168.031 107.969L169.781 86.2188L163.125 83.1875L173.875 81.1562L174 85.0625C174.729 84.1875 175.479 83.4688 176.25 82.9062C177.021 82.3438 177.719 81.8854 178.344 81.5312C179.073 81.1354 179.781 80.8333 180.469 80.625C181.719 80.3333 182.99 80.2188 184.281 80.2812C184.823 80.3021 185.385 80.3646 185.969 80.4688C186.573 80.5729 187.177 80.7396 187.781 80.9688C188.406 81.1771 189.01 81.4688 189.594 81.8438C190.177 82.1979 190.74 82.6458 191.281 83.1875L187.188 90.6875Z" fill="#8762D5"/>
<path fill-rule="evenodd" clip-rule="evenodd" d="M114.881 124.03C115.349 123.158 114.287 123.422 114.287 123.422C114.287 123.422 107.202 130.223 106.217 129.39C105.232 128.556 113.154 122.039 112.217 120.821C111.349 119.685 104.39 127.79 103.554 126.8C102.726 125.812 109.513 118.719 109.513 118.719C109.513 118.719 109.771 117.651 108.905 118.119C98.2336 123.857 96.8742 129.207 96.8742 129.207C96.8742 129.207 96.5069 130.249 97.3043 131.054C97.3823 131.124 77.8345 150.561 75.2178 153.184C73.9444 154.456 78.6165 159.052 79.8819 157.78C82.4993 155.156 101.898 135.578 101.968 135.651C102.773 136.454 103.812 136.086 103.812 136.086C103.812 136.086 109.154 134.722 114.881 124.03" fill="#8762D5"/>
<path fill-rule="evenodd" clip-rule="evenodd" d="M95.0182 143.671C100.22 148.885 108.99 157.67 108.99 157.67C108.99 157.67 112.819 156.418 113.358 153.184L99.4409 139.241C97.9653 140.716 96.4911 142.193 95.0182 143.671" fill="#8762D5"/>
<path fill-rule="evenodd" clip-rule="evenodd" d="M88.1727 139.153C90.0387 137.288 91.9026 135.422 93.7642 133.553L78.6385 118.399C78.6385 118.399 78.3652 118.113 77.7632 118.717C76.5678 119.909 74.2551 127.499 84.06 137.318C85.614 138.875 86.966 139.091 88.1727 139.153" fill="#8762D5"/>
</svg>
